<?xml version="1.0" standalone="no"?>
<!DOCTYPE svg PUBLIC "-//W3C//DTD SVG 20010904//EN"
 "http://www.w3.org/TR/2001/REC-SVG-20010904/DTD/svg10.dtd">
<svg version="1.0" xmlns="http://www.w3.org/2000/svg"
 width="512.000000pt" height="512.000000pt" viewBox="0 0 512.000000 512.000000"
 preserveAspectRatio="xMidYMid meet">
<metadata>
Created by potrace 1.14, written by Peter Selinger 2001-2017
</metadata>
<g transform="translate(0.000000,512.000000) scale(0.100000,-0.100000)"
fill="#000000" stroke="none">
<path d="M2135 4992 c-6 -5 -66 -38 -135 -73 -69 -35 -127 -66 -130 -69 -3 -3
-35 -20 -72 -39 -38 -19 -68 -36 -68 -38 0 -5 30 -64 82 -163 25 -47 67 -125
93 -175 26 -49 67 -120 91 -157 24 -38 41 -68 39 -68 -3 0 2 -8 10 -17 8 -10
41 -56 74 -103 95 -133 178 -225 291 -322 57 -48 155 -118 166 -118 3 0 18 -9
34 -20 15 -11 29 -17 32 -14 3 2 11 -2 18 -11 7 -8 19 -15 27 -15 8 0 28 -7
44 -16 30 -15 53 -22 94 -29 11 -2 20 -4 20 -5 0 -2 35 -10 65 -15 14 -2 36
-6 50 -10 40 -9 275 -6 275 5 0 0 18 3 40 5 22 1 61 9 85 16 25 7 48 12 51 11
3 0 42 13 85 29 43 17 85 31 92 32 6 0 12 4 12 9 0 4 3 7 8 6 10 -3 86 34 94
46 4 6 8 7 8 3 0 -5 15 0 33 11 17 11 48 29 67 39 45 25 153 94 160 102 3 3
25 20 50 36 24 17 52 37 61 45 9 8 35 28 58 44 23 17 41 33 41 38 0 4 4 8 9 8
9 0 51 33 96 75 12 11 44 38 71 60 49 39 64 54 64 66 0 6 -14 23 -64 79 -12
14 -42 50 -67 80 -60 74 -90 109 -116 136 -13 13 -23 26 -23 29 0 8 -39 45
-48 45 -4 0 -26 -17 -49 -37 -22 -21 -57 -51 -78 -68 -20 -16 -42 -35 -49 -41
-39 -36 -178 -144 -186 -144 -6 0 -10 -4 -10 -10 0 -5 -7 -10 -15 -10 -8 0
-15 -4 -15 -8 0 -5 -12 -15 -27 -23 -16 -8 -30 -17 -33 -20 -3 -3 -27 -19 -55
-34 -27 -16 -52 -32 -55 -35 -5 -5 -101 -53 -110 -55 -3 0 -36 -13 -75 -27
-94 -37 -152 -48 -245 -50 -78 -1 -130 5 -130 15 0 4 -4 6 -8 3 -13 -8 -151
57 -182 86 -11 10 -20 16 -20 13 0 -4 -6 0 -14 7 -101 95 -137 134 -188 203
-32 44 -65 87 -71 96 -21 28 -48 74 -54 92 -3 9 -8 17 -12 17 -4 0 -13 16 -21
35 -8 19 -17 35 -20 35 -3 0 -19 27 -35 60 -16 33 -32 60 -37 60 -4 0 -8 6 -8
13 0 12 -34 79 -101 202 -27 50 -46 63 -64 47z"/>
<path d="M828 4328 c-68 -56 -133 -113 -145 -125 -12 -13 -27 -23 -32 -23 -6
0 -14 -6 -18 -13 -4 -7 -20 -22 -34 -33 l-27 -20 55 -65 c30 -35 69 -81 86
-102 18 -21 40 -48 51 -60 10 -12 37 -47 60 -77 22 -30 49 -64 59 -74 9 -11
17 -25 17 -31 0 -6 9 -17 20 -25 11 -8 20 -18 20 -23 0 -5 20 -42 45 -83 25
-40 45 -78 45 -83 0 -5 7 -14 15 -21 8 -7 13 -15 11 -19 -3 -4 6 -27 19 -53
13 -25 21 -49 17 -53 -4 -3 -1 -9 5 -13 6 -4 13 -21 16 -39 3 -17 7 -35 10
-40 15 -25 25 -195 14 -243 -2 -8 -7 -32 -12 -53 -4 -20 -11 -40 -16 -43 -5
-3 -9 -14 -9 -25 0 -10 -4 -19 -10 -19 -5 0 -10 -9 -10 -20 0 -11 -7 -23 -15
-26 -8 -4 -12 -10 -9 -15 3 -5 1 -9 -5 -9 -5 0 -12 -8 -15 -18 -9 -28 -142
-160 -216 -215 -36 -26 -72 -53 -81 -60 -19 -15 -37 -26 -116 -74 -35 -20 -63
-41 -63 -46 0 -4 -5 -5 -11 -2 -5 4 -18 1 -27 -7 -28 -24 -112 -69 -112 -61 0
4 -4 3 -8 -2 -4 -6 -25 -19 -47 -30 -22 -11 -51 -28 -64 -37 -13 -10 -32 -18
-42 -18 -11 0 -19 -4 -19 -9 0 -5 -18 -16 -40 -25 -22 -9 -40 -19 -40 -24 0
-13 53 -117 62 -120 4 -2 8 -10 8 -17 0 -8 14 -37 30 -66 17 -28 32 -56 33
-63 1 -6 4 -13 8 -16 3 -3 20 -34 38 -70 18 -36 37 -69 42 -74 10 -11 149 52
149 66 0 4 6 8 13 8 17 0 150 70 159 84 4 6 8 8 8 4 0 -4 39 16 88 44 48 28
96 56 107 62 33 19 79 50 93 63 7 7 17 13 22 13 5 0 15 6 22 13 7 7 27 21 44
32 100 63 374 336 374 373 0 6 4 12 9 12 5 0 13 9 16 20 3 11 12 26 18 33 12
13 52 86 52 96 1 3 6 16 13 29 17 30 42 100 48 132 3 14 7 33 10 42 14 45 27
151 26 213 0 62 -11 194 -18 217 -3 9 -7 27 -9 40 -10 53 -29 118 -35 118 -3
0 -6 10 -8 23 -3 45 -125 309 -159 345 -6 6 -15 22 -19 35 -4 12 -10 24 -14
27 -3 3 -31 41 -60 85 -29 44 -56 82 -60 85 -3 3 -17 21 -30 40 -13 19 -30 41
-37 48 -7 8 -26 30 -41 50 -15 20 -36 46 -47 58 -11 12 -36 40 -55 64 -19 24
-45 54 -57 68 -13 14 -23 29 -23 33 0 21 -27 3 -142 -93z"/>
<path d="M4695 3384 c-39 -19 -79 -39 -90 -46 -28 -16 -43 -23 -100 -52 -27
-14 -77 -41 -110 -61 -33 -19 -79 -44 -102 -56 -24 -12 -43 -25 -43 -30 0 -5
-5 -9 -11 -9 -12 0 -204 -129 -236 -159 -12 -12 -26 -21 -32 -21 -5 0 -11 -4
-13 -9 -1 -4 -38 -40 -80 -80 -43 -39 -76 -71 -73 -71 4 0 -42 -54 -87 -102
-10 -10 -15 -18 -11 -18 3 0 -3 -10 -14 -22 -26 -30 -79 -118 -88 -149 -4 -13
-15 -32 -24 -43 -9 -10 -15 -21 -14 -25 2 -3 -6 -33 -17 -66 -34 -106 -45
-180 -44 -320 1 -124 6 -173 30 -260 9 -33 17 -67 19 -75 2 -8 4 -16 5 -17 2
-2 3 -6 4 -10 1 -9 22 -63 43 -113 8 -19 35 -75 60 -125 26 -49 51 -100 57
-112 6 -13 14 -23 19 -23 4 0 7 -5 7 -10 0 -15 132 -210 142 -210 5 0 7 -4 4
-9 -3 -5 1 -11 9 -15 8 -3 15 -12 15 -20 0 -8 3 -16 8 -18 6 -3 72 -79 122
-141 22 -27 39 -48 94 -111 l50 -57 22 23 c13 13 29 28 36 33 13 10 131 109
154 130 7 6 31 26 55 45 24 19 58 49 76 65 l33 30 -37 43 c-21 23 -45 50 -53
60 -29 36 -85 104 -108 130 -41 48 -168 226 -198 277 -15 28 -32 52 -36 53 -4
2 -8 8 -8 13 0 4 -18 45 -39 89 -22 44 -38 80 -36 80 3 0 -5 21 -16 46 -11 26
-17 49 -15 52 3 2 1 13 -5 23 -5 10 -11 49 -14 86 -2 37 -5 70 -6 73 -1 3 0
10 1 15 1 6 4 25 6 43 2 18 6 43 10 55 5 12 8 27 8 32 2 19 59 135 68 135 4 0
8 4 8 10 0 20 115 142 195 206 60 49 209 149 285 191 30 17 73 41 95 54 22 12
78 42 125 66 47 25 111 59 142 75 l58 31 -55 105 c-31 58 -60 111 -65 117 -5
7 -7 15 -3 18 3 4 1 7 -6 7 -7 0 -10 4 -6 9 3 5 0 13 -5 16 -11 7 -33 55 -30
64 1 2 -2 7 -7 10 -5 3 -17 23 -26 43 -10 20 -21 39 -25 42 -4 2 -39 -11 -77
-30z"/>
<path d="M1959 1645 c-2 -2 -33 -6 -69 -10 -36 -4 -91 -15 -122 -25 -32 -10
-58 -16 -58 -14 0 1 -30 -8 -67 -22 -38 -14 -76 -28 -85 -31 -10 -3 -18 -10
-18 -16 0 -6 -3 -8 -6 -4 -4 3 -21 -1 -38 -10 -17 -9 -36 -18 -43 -19 -7 -1
-26 -12 -43 -24 -16 -12 -30 -18 -30 -13 0 4 -4 4 -8 -2 -4 -5 -17 -16 -29
-22 -13 -7 -33 -19 -45 -25 -13 -7 -25 -15 -28 -18 -3 -3 -18 -14 -35 -24 -66
-41 -215 -151 -215 -158 0 -4 -7 -8 -15 -8 -7 0 -18 -6 -22 -12 -4 -7 -30 -31
-58 -53 -27 -22 -55 -44 -61 -50 -6 -5 -30 -26 -53 -45 -23 -19 -53 -45 -67
-58 l-25 -22 33 -43 c18 -23 51 -61 73 -85 22 -24 42 -49 44 -55 2 -6 17 -23
33 -37 15 -13 28 -28 28 -32 0 -4 10 -17 23 -30 12 -13 36 -40 54 -62 l31 -38
33 28 c17 16 42 38 55 49 12 11 39 34 59 50 21 17 47 38 59 49 113 99 436 314
436 291 0 -3 10 3 22 14 11 11 25 18 29 15 5 -3 19 2 32 11 13 8 27 12 30 8 4
-3 7 -1 7 5 0 7 3 11 8 11 4 -1 10 0 15 1 4 1 12 4 17 5 6 1 11 3 13 5 2 2 18
5 77 16 58 12 244 8 248 -4 2 -6 9 -9 16 -6 8 3 30 -4 50 -15 20 -11 36 -19
36 -16 0 8 92 -51 125 -80 60 -52 71 -62 105 -101 57 -63 102 -123 157 -208
28 -45 57 -87 63 -94 6 -6 8 -12 5 -12 -4 0 3 -12 14 -26 12 -15 21 -33 21
-40 0 -8 3 -14 8 -14 4 0 18 -25 32 -55 14 -30 29 -55 33 -55 5 0 5 -4 2 -10
-3 -5 -1 -10 5 -10 6 0 9 -4 6 -9 -4 -5 -3 -11 1 -13 5 -1 32 -50 62 -108 30
-58 55 -106 56 -108 4 -4 109 52 117 63 4 6 8 6 8 2 0 -5 12 0 28 10 15 10 84
48 154 83 70 36 128 69 128 74 0 5 -19 45 -42 90 -23 44 -48 95 -56 111 -8 17
-22 38 -30 48 -8 9 -12 17 -8 17 3 0 -5 18 -19 40 -14 22 -25 42 -25 45 0 26
-196 326 -281 430 -95 117 -246 258 -334 312 -80 50 -130 76 -142 76 -7 0 -13
4 -13 9 0 5 -4 7 -9 3 -5 -3 -12 -1 -15 4 -6 9 -112 43 -171 55 -16 4 -41 9
-55 12 -29 6 -246 14 -251 9z"/>
</g>
</svg>
