<?xml version="1.0" encoding="UTF-8"?>
<!-- Generated by Pixelmator Pro 2.4.3 -->
<svg width="115" height="75" viewBox="0 0 115 75" xmlns="http://www.w3.org/2000/svg" xmlns:xlink="http://www.w3.org/1999/xlink">
    <g id="Group">
        <path id="Path" fill="#ffffff" fill-rule="evenodd" stroke="none" d="M 92.515625 72.591797 C 92.360449 62.465031 86.512647 56.524164 80.4375 53.078125 L 18.197266 53.078125 C 9.251641 53.078125 2 45.824531 2 36.878906 L 2 18.197266 C 2 9.251643 9.251641 2 18.197266 2 L 96.162109 2 C 105.107732 2 112.359375 9.251643 112.359375 18.197266 L 112.359375 36.878906 C 112.359375 45.119601 106.205199 51.924235 98.242188 52.945313 C 100.051338 58.422949 100.085464 65.737411 92.515625 72.591797 Z M 99.423828 40.220703 C 101.162726 40.220703 102.583984 38.899634 102.583984 37.210938 C 102.583984 35.538912 101.162726 34.216797 99.423828 34.216797 C 97.668207 34.216797 96.246094 35.538912 96.246094 37.210938 C 96.246094 38.899634 97.668207 40.220703 99.423828 40.220703 Z M 58.257813 40.085938 C 62.889289 40.085938 66.734834 37.878758 68.189453 34.451172 C 68.440262 33.86596 68.574219 33.2649 68.574219 32.679688 C 68.574219 31.057863 67.438116 29.970703 65.699219 29.970703 C 64.411798 29.970703 63.658779 30.505285 63.023438 31.826172 C 61.986821 34.100076 60.366346 35.169922 58.142578 35.169922 C 54.765125 35.169922 52.658203 32.311889 52.658203 27.580078 C 52.658203 22.898538 54.781013 20.039063 58.125 20.039063 C 60.248434 20.039063 61.870214 21.126685 62.957031 23.367188 C 63.625842 24.70481 64.462114 25.255859 65.816406 25.255859 C 67.4215 25.255859 68.492188 24.235754 68.492188 22.664063 C 68.492188 21.928384 68.274322 21.159507 67.873047 20.423828 C 66.067285 16.996242 62.623134 15.123047 58.058594 15.123047 C 50.935882 15.123047 46.404297 19.720577 46.404297 27.595703 C 46.404297 35.487564 50.834163 40.085938 58.257813 40.085938 Z M 89.742188 40.052734 C 91.414213 40.052734 92.685547 38.76578 92.685547 37.09375 C 92.685547 36.241071 92.266822 35.321273 91.263672 34.083984 L 85.09375 26.525391 L 90.863281 20.439453 C 91.682563 19.553239 92 18.885306 92 17.982422 C 92 16.41073 90.712515 15.15625 89.107422 15.15625 C 88.070809 15.15625 87.301124 15.557595 86.431641 16.527344 L 78.222656 25.623047 L 78.087891 25.623047 L 78.087891 18.367188 C 78.087891 16.327356 76.968794 15.173828 75.029297 15.173828 C 73.089731 15.173828 71.953125 16.327356 71.953125 18.367188 L 71.953125 36.841797 C 71.953125 38.881697 73.089731 40.035156 75.029297 40.035156 C 76.968794 40.035156 78.087891 38.881697 78.087891 36.841797 L 78.087891 32.845703 L 80.328125 30.505859 L 86.582031 38.314453 C 87.568519 39.568408 88.454767 40.052734 89.742188 40.052734 Z M 14.871094 40.035156 C 16.810591 40.035156 17.929688 38.881697 17.929688 36.841797 L 17.929688 30.673828 L 25.019531 30.673828 C 26.607889 30.673828 27.578125 29.803389 27.578125 28.332031 C 27.578125 26.843942 26.57449 25.974609 25.019531 25.974609 L 17.929688 25.974609 L 17.929688 20.490234 L 25.804688 20.490234 C 27.426512 20.490234 28.53125 19.587317 28.53125 18.015625 C 28.53125 16.443933 27.45998 15.541016 25.804688 15.541016 L 14.871094 15.541016 C 12.931529 15.541016 11.792969 16.712122 11.792969 18.751953 L 11.792969 36.841797 C 11.792969 38.881697 12.931529 40.035156 14.871094 40.035156 Z M 99.423828 32.009766 C 101.112524 32.009766 101.981117 31.007319 102.03125 29.285156 L 102.332031 18.884766 C 102.348762 18.617226 102.365234 18.317013 102.365234 18.099609 C 102.365234 16.243711 101.278616 15.15625 99.439453 15.15625 C 97.58349 15.15625 96.480469 16.243711 96.480469 18.099609 C 96.480469 18.317013 96.498047 18.617226 96.498047 18.884766 L 96.814453 29.285156 C 96.864586 31.007319 97.718408 32.009766 99.423828 32.009766 Z M 37.257813 28.816406 C 38.261027 28.816406 38.946423 28.097812 38.929688 27.111328 C 38.929688 26.994328 38.929951 26.860298 38.896484 26.726563 L 38.412109 23.917969 L 40.652344 25.791016 C 41.003482 26.092022 41.421639 26.275391 41.873047 26.275391 C 42.759193 26.275391 43.527344 25.490127 43.527344 24.537109 C 43.527344 23.818097 43.077674 23.19918 42.308594 22.931641 L 39.515625 21.894531 L 42.308594 20.857422 C 43.077674 20.606617 43.527344 19.988479 43.527344 19.269531 C 43.527344 18.316518 42.759193 17.546875 41.873047 17.546875 C 41.421639 17.546875 41.003482 17.73116 40.652344 18.048828 L 38.361328 19.955078 L 38.880859 17.046875 C 38.897526 16.913139 38.914063 16.778267 38.914063 16.644531 C 38.914063 15.674783 38.244296 14.957031 37.257813 14.957031 C 36.237931 14.957031 35.535156 15.707917 35.535156 16.677734 C 35.535156 16.81147 35.553577 16.913139 35.570313 17.046875 L 36.087891 19.955078 L 33.814453 18.033203 C 33.480049 17.732266 33.060848 17.546875 32.609375 17.546875 C 31.723226 17.546875 30.9375 18.333184 30.9375 19.269531 C 30.9375 19.988479 31.389056 20.573151 32.158203 20.857422 L 34.933594 21.894531 L 32.175781 22.914063 C 31.423371 23.198337 30.955078 23.818097 30.955078 24.537109 C 30.955078 25.490127 31.723226 26.259766 32.609375 26.259766 C 33.027381 26.259766 33.463314 26.092022 33.814453 25.791016 L 36.070313 23.917969 L 35.570313 26.726563 C 35.536842 26.860298 35.519531 26.994328 35.519531 27.111328 C 35.519531 28.097812 36.221196 28.816406 37.257813 28.816406 Z"/>
    </g>
</svg>
