<?xml version="1.0" encoding="UTF-8"?>
<!-- Generated by Pixelmator Pro 2.4.3 -->
<svg width="115" height="75" viewBox="0 0 115 75" xmlns="http://www.w3.org/2000/svg" xmlns:xlink="http://www.w3.org/1999/xlink">
    <g id="Group">
        <path id="Path-copy" fill="#ffffff" fill-rule="evenodd" stroke="none" d="M 92.515625 72.591797 C 92.360451 62.465031 86.512642 56.524162 80.4375 53.078125 L 18.197266 53.078125 C 9.25164 53.078125 2 45.824532 2 36.878906 L 2 18.197266 C 2 9.25164 9.25164 2 18.197266 2 L 96.162109 2 C 105.107735 2 112.359375 9.25164 112.359375 18.197266 L 112.359375 36.878906 C 112.359375 45.119602 106.2052 51.924236 98.242188 52.945313 C 100.051338 58.422951 100.085464 65.737411 92.515625 72.591797 Z M 100.65625 39.501953 C 102.235535 39.501953 103.525391 38.30127 103.525391 36.767578 C 103.525391 35.249023 102.235535 34.048828 100.65625 34.048828 C 99.061768 34.048828 97.769531 35.249023 97.769531 36.767578 C 97.769531 38.30127 99.061768 39.501953 100.65625 39.501953 Z M 21.84375 39.378906 C 26.050045 39.378906 29.542116 37.374691 30.863281 34.261719 C 31.091064 33.730225 31.212891 33.183838 31.212891 32.652344 C 31.212891 31.179382 30.180845 30.193359 28.601563 30.193359 C 27.432314 30.193359 26.748901 30.67926 26.171875 31.878906 C 25.230347 33.944088 23.757933 34.916016 21.738281 34.916016 C 18.670841 34.916016 16.755859 32.318966 16.755859 28.021484 C 16.755859 23.769657 18.685612 21.171875 21.722656 21.171875 C 23.651182 21.171875 25.124331 22.160465 26.111328 24.195313 C 26.71875 25.410156 27.476992 25.910156 28.707031 25.910156 C 30.164793 25.910156 31.136719 24.98407 31.136719 23.556641 C 31.136719 22.888489 30.940674 22.189636 30.576172 21.521484 C 28.936159 18.408512 25.807674 16.707031 21.662109 16.707031 C 15.193183 16.707031 11.078125 20.884834 11.078125 28.037109 C 11.078125 35.204582 15.101447 39.378906 21.84375 39.378906 Z M 43.726563 39.378906 C 49.421017 39.378906 53.15625 36.14465 53.15625 31.224609 L 53.15625 19.654297 C 53.15625 17.801697 52.138 16.753906 50.361328 16.753906 C 48.599792 16.753906 47.582031 17.801697 47.582031 19.654297 L 47.582031 30.632813 C 47.582031 33.183956 46.201778 34.703125 43.726563 34.703125 C 41.236149 34.703125 39.853516 33.183956 39.853516 30.632813 L 39.853516 19.654297 C 39.853516 17.801697 38.835693 16.753906 37.074219 16.753906 C 35.312744 16.753906 34.28125 17.801697 34.28125 19.654297 L 34.28125 31.224609 C 34.28125 36.14465 38.01685 39.378906 43.726563 39.378906 Z M 64.923828 39.378906 C 70.694206 39.378906 74.142578 36.585323 74.142578 32.181641 C 74.142578 28.734562 72.016899 26.837341 67.339844 25.941406 L 65.091797 25.515625 C 62.707706 25.060059 61.720703 24.421692 61.720703 23.267578 C 61.720703 21.976868 62.904179 21.066406 64.923828 21.066406 C 66.533447 21.066406 67.749207 21.598206 68.462891 22.964844 C 69.115906 24.027832 69.875 24.466797 71.089844 24.466797 C 72.486877 24.451599 73.427734 23.587646 73.427734 22.296875 C 73.427734 21.84137 73.353027 21.475281 73.201172 21.095703 C 72.138184 18.316776 69.07 16.707031 64.878906 16.707031 C 59.837345 16.707031 56.177734 19.426945 56.177734 23.648438 C 56.177734 26.989193 58.456303 29.129211 62.814453 29.949219 L 65.076172 30.375 C 67.672852 30.876099 68.599609 31.498108 68.599609 32.712891 C 68.599609 34.049255 67.187134 35.021484 65.015625 35.021484 C 63.254089 35.021484 61.781189 34.444763 61.037109 33.078125 C 60.323425 31.984741 59.593811 31.605469 58.515625 31.605469 C 57.103394 31.605469 56.101563 32.546326 56.101563 33.943359 C 56.101563 34.398926 56.193176 34.868652 56.390625 35.324219 C 57.301697 37.586849 60.170841 39.378906 64.923828 39.378906 Z M 85.181641 39.378906 C 90.952019 39.378906 94.398438 36.585323 94.398438 32.181641 C 94.398438 28.734562 92.27282 26.837341 87.595703 25.941406 L 85.349609 25.515625 C 82.965515 25.060059 81.978516 24.421692 81.978516 23.267578 C 81.978516 21.976868 83.161987 21.066406 85.181641 21.066406 C 86.79126 21.066406 88.007019 21.598206 88.720703 22.964844 C 89.373718 24.027832 90.132813 24.466797 91.347656 24.466797 C 92.74469 24.451599 93.685547 23.587646 93.685547 22.296875 C 93.685547 21.84137 93.608887 21.475281 93.457031 21.095703 C 92.394043 18.316776 89.327873 16.707031 85.136719 16.707031 C 80.095222 16.707031 76.435547 19.426945 76.435547 23.648438 C 76.435547 26.989193 78.712166 29.129211 83.070313 29.949219 L 85.333984 30.375 C 87.930664 30.876099 88.857422 31.498108 88.857422 32.712891 C 88.857422 34.049255 87.444885 35.021484 85.273438 35.021484 C 83.511902 35.021484 82.039001 34.444763 81.294922 33.078125 C 80.581238 31.984741 79.851563 31.605469 78.773438 31.605469 C 77.361206 31.605469 76.359375 32.546326 76.359375 33.943359 C 76.359375 34.398926 76.45105 34.868652 76.648438 35.324219 C 77.55957 37.586849 80.428658 39.378906 85.181641 39.378906 Z M 100.65625 32.044922 C 102.189941 32.044922 102.977905 31.134399 103.023438 29.570313 L 103.296875 20.125 C 103.312073 19.882019 103.328125 19.607605 103.328125 19.410156 C 103.328125 17.724609 102.340271 16.738281 100.669922 16.738281 C 98.984314 16.738281 97.982422 17.724609 97.982422 19.410156 C 97.982422 19.607605 97.998047 19.882019 97.998047 20.125 L 98.287109 29.570313 C 98.332642 31.134399 99.107361 32.044922 100.65625 32.044922 Z"/>
    </g>
</svg>
